# xmcd
#
# Track frame offsets:
#	150
#	29748
#	46423
#	58712
#	77080
#	96768
#	110021
#	126643
#	142636
#	165743
#	184270
#
# Disc length: 2666 seconds
#
# Revision: 1
# Processed by: cddbd v1.5.2PL0 Copyright (c) Steve Scherf et al.
# Submitted via: audiograbber 1.83.01
#
DISCID=9b0a680b
DTITLE=Kenny Chesney - Hemingway's Whiskey
DYEAR=2010
DGENRE=Country
TTITLE0=The Boys Of Fall
TTITLE1=Live A Little
TTITLE2=Coastal
TTITLE3=You And Tequila (Feat. Grace Porter)
TTITLE4=Seven Days
TTITLE5=Small Yall (Feat. George Jones)
TTITLE6=Where I Grew Up
TTITLE7=Reality
TTITLE8=Round And Round
TTITLE9=Somewhere With You
TTITLE10=Hamingway's Whiskey
EXTD=
EXTT0=
EXTT1=
EXTT2=
EXTT3=
EXTT4=
EXTT5=
EXTT6=
EXTT7=
EXTT8=
EXTT9=
EXTT10=
PLAYORDER=
